<svg width="16" height="16" viewBox="0 0 16 16" fill="none" xmlns="http://www.w3.org/2000/svg">
<path d="M0 4.16C0 1.8625 1.8625 0 4.16 0H11.84C14.1375 0 16 1.8625 16 4.16V11.84C16 14.1375 14.1375 16 11.84 16H4.16C1.8625 16 0 14.1375 0 11.84V4.16Z" fill="#F6F6F6"/>
<path d="M12.8 8C12.8 10.651 10.651 12.8 8 12.8C5.34903 12.8 3.2 10.651 3.2 8C3.2 5.34903 5.34903 3.2 8 3.2C10.651 3.2 12.8 5.34903 12.8 8ZM4.4 8C4.4 9.98823 6.01178 11.6 8 11.6C9.98823 11.6 11.6 9.98823 11.6 8C11.6 6.01178 9.98823 4.4 8 4.4C6.01178 4.4 4.4 6.01178 4.4 8Z" fill="#1C1C1C"/>
<path d="M10.368 1.92C10.368 2.20277 10.1388 2.432 9.856 2.432C9.57323 2.432 9.344 2.20277 9.344 1.92C9.344 1.63723 9.57323 1.408 9.856 1.408C10.1388 1.408 10.368 1.63723 10.368 1.92Z" fill="#1C1C1C"/>
<path d="M8.576 1.92C8.576 2.20277 8.34677 2.432 8.064 2.432C7.78123 2.432 7.552 2.20277 7.552 1.92C7.552 1.63723 7.78123 1.408 8.064 1.408C8.34677 1.408 8.576 1.63723 8.576 1.92Z" fill="#1C1C1C"/>
<path d="M6.784 1.92C6.784 2.20277 6.55477 2.432 6.272 2.432C5.98923 2.432 5.76 2.20277 5.76 1.92C5.76 1.63723 5.98923 1.408 6.272 1.408C6.55477 1.408 6.784 1.63723 6.784 1.92Z" fill="#1C1C1C"/>
</svg>
