<svg width="201" height="86" viewBox="0 0 201 86" fill="none" xmlns="http://www.w3.org/2000/svg">
<path d="M200.375 57.7235C200.375 73.3075 187.742 85.9409 172.158 85.9409C156.573 85.9409 143.94 73.3075 143.94 57.7235C143.94 42.1394 156.573 29.506 172.158 29.506C187.742 29.506 200.375 42.1394 200.375 57.7235ZM150.994 57.7235C150.994 69.4115 160.469 78.8865 172.158 78.8865C183.846 78.8865 193.321 69.4115 193.321 57.7235C193.321 46.0354 183.846 36.5604 172.158 36.5604C160.469 36.5604 150.994 46.0354 150.994 57.7235Z" fill="#2E37FE"/>
<path d="M186.078 21.9817C186.078 23.644 184.73 24.9916 183.068 24.9916C181.406 24.9916 180.058 23.644 180.058 21.9817C180.058 20.3194 181.406 18.9719 183.068 18.9719C184.73 18.9719 186.078 20.3194 186.078 21.9817Z" fill="#2E37FE"/>
<path d="M175.544 21.9817C175.544 23.644 174.196 24.9916 172.534 24.9916C170.872 24.9916 169.524 23.644 169.524 21.9817C169.524 20.3194 170.872 18.9719 172.534 18.9719C174.196 18.9719 175.544 20.3194 175.544 21.9817Z" fill="#2E37FE"/>
<path d="M165.009 21.9817C165.009 23.644 163.662 24.9916 161.999 24.9916C160.337 24.9916 158.989 23.644 158.989 21.9817C158.989 20.3194 160.337 18.9719 161.999 18.9719C163.662 18.9719 165.009 20.3194 165.009 21.9817Z" fill="#2E37FE"/>
<path d="M45.5007 84.8249H0.375V5.1464H45.5007V16.1553H13.4549V37.7917H43.4842V48.7461H13.4549V73.7614H45.5007V84.8249Z" fill="#1C1C1C"/>
<path d="M74.2765 84.8249H61.4146V0.0234375H74.2765V84.8249Z" fill="#1C1C1C"/>
<path d="M133.136 67.603C133.136 71.5633 132.173 74.9059 130.248 77.6309C128.322 80.3559 125.506 82.4269 121.8 83.8439C118.131 85.2245 113.625 85.9148 108.284 85.9148C104.07 85.9148 100.436 85.606 97.3843 84.9884C94.3687 84.407 91.5165 83.4987 88.8279 82.2634V71.1999C91.6982 72.5443 94.9137 73.7069 98.4743 74.6879C102.071 75.6689 105.468 76.1594 108.666 76.1594C112.88 76.1594 115.914 75.5054 117.767 74.1974C119.62 72.8531 120.547 71.0728 120.547 68.8565C120.547 67.5485 120.165 66.3858 119.402 65.3685C118.676 64.3148 117.295 63.243 115.26 62.153C113.262 61.0267 110.319 59.6824 106.431 58.12C102.616 56.594 99.4008 55.0681 96.7848 53.5421C94.1689 52.0161 92.1887 50.1813 90.8444 48.0376C89.5001 45.8576 88.8279 43.0781 88.8279 39.6992C88.8279 34.3582 90.9352 30.3071 95.1498 27.5457C99.4008 24.7481 105.014 23.3493 111.99 23.3493C115.696 23.3493 119.184 23.7308 122.454 24.4938C125.76 25.2204 128.994 26.2923 132.155 27.7092L128.122 37.3557C125.397 36.1567 122.654 35.1757 119.893 34.4127C117.168 33.6134 114.388 33.2137 111.554 33.2137C108.248 33.2137 105.723 33.7224 103.979 34.7397C102.271 35.757 101.417 37.2103 101.417 39.0997C101.417 40.5167 101.835 41.7156 102.671 42.6966C103.506 43.6776 104.942 44.6586 106.976 45.6396C109.047 46.6206 111.918 47.8378 115.587 49.2911C119.184 50.6718 122.291 52.1251 124.907 53.6511C127.559 55.1407 129.594 56.9755 131.011 59.1555C132.428 61.3355 133.136 64.1513 133.136 67.603Z" fill="#1C1C1C"/>
</svg>
