<svg width="200" height="86" viewBox="0 0 200 86" fill="none" xmlns="http://www.w3.org/2000/svg">
<path d="M200 57.7C200 73.2841 187.367 85.9175 171.783 85.9175C156.198 85.9175 143.565 73.2841 143.565 57.7C143.565 42.116 156.198 29.4826 171.783 29.4826C187.367 29.4826 200 42.116 200 57.7ZM150.619 57.7C150.619 69.3881 160.094 78.8631 171.783 78.8631C183.471 78.8631 192.946 69.3881 192.946 57.7C192.946 46.012 183.471 36.5369 171.783 36.5369C160.094 36.5369 150.619 46.012 150.619 57.7Z" fill="#1C1C1C"/>
<path d="M185.703 21.9583C185.703 23.6206 184.355 24.9682 182.693 24.9682C181.031 24.9682 179.683 23.6206 179.683 21.9583C179.683 20.296 181.031 18.9484 182.693 18.9484C184.355 18.9484 185.703 20.296 185.703 21.9583Z" fill="#1C1C1C"/>
<path d="M175.169 21.9583C175.169 23.6206 173.821 24.9682 172.159 24.9682C170.497 24.9682 169.149 23.6206 169.149 21.9583C169.149 20.296 170.497 18.9484 172.159 18.9484C173.821 18.9484 175.169 20.296 175.169 21.9583Z" fill="#1C1C1C"/>
<path d="M164.634 21.9583C164.634 23.6206 163.287 24.9682 161.624 24.9682C159.962 24.9682 158.614 23.6206 158.614 21.9583C158.614 20.296 159.962 18.9484 161.624 18.9484C163.287 18.9484 164.634 20.296 164.634 21.9583Z" fill="#1C1C1C"/>
<path d="M45.1257 84.8014H0V5.12296H45.1257V16.1319H13.0799V37.7682H43.1092V48.7227H13.0799V73.738H45.1257V84.8014Z" fill="#1C1C1C"/>
<path d="M73.9015 84.8014H61.0396V0H73.9015V84.8014Z" fill="#1C1C1C"/>
<path d="M132.761 67.5795C132.761 71.5398 131.798 74.8825 129.873 77.6075C127.947 80.3324 125.131 82.4034 121.425 83.8204C117.756 85.2011 113.25 85.8914 107.909 85.8914C103.695 85.8914 100.061 85.5826 97.0093 84.9649C93.9937 84.3836 91.1415 83.4753 88.4529 82.2399V71.1765C91.3232 72.5208 94.5387 73.6835 98.0993 74.6645C101.696 75.6455 105.093 76.136 108.291 76.136C112.505 76.136 115.539 75.482 117.392 74.174C119.245 72.8297 120.172 71.0493 120.172 68.833C120.172 67.525 119.79 66.3624 119.027 65.345C118.301 64.2914 116.92 63.2196 114.885 62.1296C112.887 61.0032 109.944 59.6589 106.056 58.0966C102.241 56.5706 99.0258 55.0446 96.4098 53.5186C93.7939 51.9926 91.8137 50.1578 90.4694 48.0142C89.1251 45.8342 88.4529 43.0547 88.4529 39.6757C88.4529 34.3348 90.5602 30.2836 94.7748 27.5223C99.0258 24.7247 104.639 23.3258 111.615 23.3258C115.321 23.3258 118.809 23.7073 122.079 24.4703C125.385 25.197 128.619 26.2688 131.78 27.6858L127.747 37.3322C125.022 36.1333 122.279 35.1523 119.518 34.3893C116.793 33.5899 114.013 33.1903 111.179 33.1903C107.873 33.1903 105.348 33.6989 103.604 34.7163C101.896 35.7336 101.042 37.1869 101.042 39.0762C101.042 40.4932 101.46 41.6922 102.296 42.6732C103.131 43.6542 104.567 44.6352 106.601 45.6162C108.672 46.5972 111.543 47.8143 115.212 49.2677C118.809 50.6483 121.916 52.1016 124.532 53.6276C127.184 55.1173 129.219 56.9521 130.636 59.1321C132.053 61.3121 132.761 64.1279 132.761 67.5795Z" fill="#1C1C1C"/>
</svg>
